<?xml version="1.0" encoding="UTF-8" standalone="no"?>
<!-- Created with Inkscape (http://www.inkscape.org/) -->

<svg
   version="1.1"
   id="svg313"
   width="640"
   height="640"
   viewBox="0 0 640 640"
   sodipodi:docname="logo Ylw leaf.svg"
   inkscape:version="1.2.1 (9c6d41e410, 2022-07-14)"
   xmlns:inkscape="http://www.inkscape.org/namespaces/inkscape"
   xmlns:sodipodi="http://sodipodi.sourceforge.net/DTD/sodipodi-0.dtd"
   xmlns="http://www.w3.org/2000/svg"
   xmlns:svg="http://www.w3.org/2000/svg">
  <defs
     id="defs317">
    <linearGradient
       id="linearGradient6333"
       inkscape:swatch="solid">
      <stop
         style="stop-color:#cbc124;stop-opacity:1;"
         offset="0"
         id="stop6331" />
    </linearGradient>
    <rect
       x="23.703704"
       y="421.31422"
       width="242.38949"
       height="131.51732"
       id="rect4347" />
    <rect
       x="328.79331"
       y="485.54361"
       width="136.10513"
       height="75.698925"
       id="rect4341" />
    <rect
       x="46.642772"
       y="466.42772"
       width="214.86261"
       height="72.640382"
       id="rect4285" />
    <rect
       x="93.285544"
       y="471.01553"
       width="480.19116"
       height="88.69773"
       id="rect4177" />
  </defs>
  <sodipodi:namedview
     id="namedview315"
     pagecolor="#ffffff"
     bordercolor="#000000"
     borderopacity="0.25"
     inkscape:showpageshadow="2"
     inkscape:pageopacity="0.0"
     inkscape:pagecheckerboard="0"
     inkscape:deskcolor="#d1d1d1"
     showgrid="false"
     inkscape:zoom="1.3078125"
     inkscape:cx="367.02509"
     inkscape:cy="279.092"
     inkscape:window-width="1920"
     inkscape:window-height="1017"
     inkscape:window-x="-8"
     inkscape:window-y="-8"
     inkscape:window-maximized="1"
     inkscape:current-layer="g319" />
  <g
     inkscape:groupmode="layer"
     inkscape:label="Image"
     id="g319">
    <rect
       style="fill:#cbc124;fill-opacity:1;stroke:#cbc124;stroke-width:7.4;stroke-linecap:round;stroke-linejoin:round;stroke-dasharray:none;stroke-opacity:1;paint-order:normal"
       id="rect4403"
       width="135.34053"
       height="64.229416"
       x="378.49466"
       y="447.31183" />
    <path
       style="fill:#cbc124;fill-opacity:1;stroke:none;stroke-width:0.656213;stroke-opacity:1"
       d="m 184.65144,63.464755 c 1.60085,52.881105 17.18024,127.934555 30.36885,160.599865 20.2991,39.2271 48.11807,46.39005 106.81462,65.39395 33.40023,27.76917 49.05124,49.01846 73.38901,73.45869 l -21.84427,-3.06002 c -26.17353,-29.99216 -52.9081,-59.37541 -100.33553,-66.30074 -74.13185,-5.09522 -103.62816,18.65441 -154.02062,28.90032 43.43015,27.63463 79.82766,68.77291 132.91683,77.86086 44.08863,4.4438 82.41214,-17.58381 121.80956,-34.68038 8.69583,-0.25278 18.04023,-0.80335 22.955,0.68 14.78312,8.42678 33.17121,23.99007 51.83386,40.46045 l 8.14532,-2.72002 c -19.75356,-15.98019 -46.73283,-31.96037 -55.90652,-47.94053 -1.80962,-6.61141 -5.4237,-12.31144 11.84774,-28.56032 3.8085,-4.0742 64.88939,-37.63583 65.16256,-70.38078 0.14304,-17.14639 -0.15442,-27.19325 -21.47403,-151.98167 -31.19725,37.96914 -68.40171,69.04253 -88.85804,119.34131 -14.52943,63.84822 11.00301,80.22549 24.8062,110.50123 l 2.5917,18.36019 c -25.85117,-23.33911 -51.22524,-46.64021 -57.75773,-67.32074 -2.56066,-25.57153 7.20503,-34.52708 9.97217,-55.10445 2.26675,-19.55231 -5.97896,-47.90412 -34.77837,-80.21705 -29.00356,-28.95136 -71.2414,-63.281282 -127.63831,-87.290165 z"
       id="path377"
       sodipodi:nodetypes="ccccccccccccccscccccccc" />
    <path
       style="fill:#fdfbfb;fill-opacity:1;stroke:none;stroke-width:0.656213;stroke-opacity:1"
       d="m 402.20767,313.26005 4.4506,1.68293 4.97421,-21.15686 28.27446,-16.58891 -26.70365,12.50178 4.4506,-20.67603 50.00391,-30.29278 -49.2185,23.32063 4.45061,-20.67602 36.12847,-21.39729 -35.08126,16.10807 4.7124,-24.76315 28.79806,-15.86765 -27.75085,12.7422 4.71241,-25.00357 19.37323,-11.54011 -19.11143,8.65508 3.4034,-14.66557 -4.45061,13.70389 -13.61363,-15.62722 12.82822,19.95476 -5.4978,23.56106 -20.68225,-25.24399 19.11144,30.05237 -4.71241,23.32064 -26.44185,-33.41823 25.13285,38.70745 -3.927,19.23352 -35.34307,-43.99667 33.24866,51.69008 -4.18881,19.2335 -27.22725,-33.41823 25.39465,39.42871 z"
       id="path1913" />
    <path
       style="fill:#fdfbfb;fill-opacity:1;stroke:none;stroke-width:0.656213;stroke-opacity:1"
       d="m 309.69805,257.34611 -11.84773,-18.19021 -46.28024,-13.43014 43.13318,7.99009 -11.10725,-17.8502 -62.75599,-18.0202 58.49821,11.39012 -9.81141,-16.49018 -47.39097,-13.43015 43.68855,8.33009 -12.4031,-19.55021 -37.76467,-10.88012 35.17297,5.78006 -13.51383,-20.91023 -23.32524,-7.14008 21.65916,3.91005 -8.14532,-12.75015 9.07092,11.39013 7.96019,-17.1702 -5.73874,20.91024 13.69895,20.74023 11.10726,-25.84028 -8.70068,29.75032 14.25431,20.74024 12.95846,-32.13036 -10.36678,36.5504 12.21799,18.3602 18.32697,-44.88049 -14.43943,50.83057 11.66261,17.85019 10.92214,-25.50028 -7.9602,29.75032 10.18165,18.36021 z"
       id="path1911" />
    <path
       style="fill:#fdfbfb;fill-opacity:1;stroke:none;stroke-width:0.656213;stroke-opacity:1"
       d="m 348.75857,362.57727 -22.21451,-4.42005 -41.83733,25.33027 35.17297,-26.18028 -21.10378,-3.40004 -56.09164,33.32037 46.83559,-34.68038 -20.36329,-3.23004 -41.83734,25.33027 34.98786,-26.52028 -24.06572,-3.74004 -32.58128,19.38021 26.84254,-20.06021 -26.28718,-4.08005 -20.3633,12.41013 16.10552,-12.92014 -15.36503,-2.89003 15.73527,1.70001 -11.29238,-17.3402 14.80968,17.51021 27.02765,3.57003 -14.9948,-23.97026 19.62282,24.82028 26.65741,3.23003 -19.62282,-31.11034 25.17646,32.13035 22.21451,2.55003 -26.65742,-43.35048 34.61762,44.8805 22.02939,2.55002 -15.36504,-24.31026 20.3633,24.82027 21.65915,4.93005 z"
       id="path1183" />
    <text
       xml:space="preserve"
       id="text4283"
       style="font-size:64px;white-space:pre;shape-inside:url(#rect4285);display:inline;fill:#c7c13c;fill-opacity:1;stroke:none;stroke-opacity:1"
       transform="translate(113.9307,-26.762246)"><tspan
         x="46.642578"
         y="524.81687"
         id="tspan6721">Yellow</tspan></text>
    <text
       xml:space="preserve"
       id="text4339"
       style="font-size:64px;white-space:pre;shape-inside:url(#rect4341);display:inline;fill:#ffffff;fill-opacity:1;stroke:none;stroke-width:1.01806;stroke-opacity:1"
       transform="matrix(0.96484434,0,0,1,60.715336,-43.58423)"><tspan
         x="328.79297"
         y="543.93211"
         id="tspan6723">Leaf</tspan></text>
    <text
       xml:space="preserve"
       id="text4345"
       style="font-size:64px;white-space:pre;shape-inside:url(#rect4347);display:inline;fill:#ffffff;fill-opacity:1;stroke:#000000;stroke-opacity:1" />
  </g>
</svg>
